<svg width="20" height="20" viewBox="0 0 20 20" fill="none" xmlns="http://www.w3.org/2000/svg">
<path d="M10.6985 16.7875C11.3157 16.2922 17.0469 10.7187 17.111 10.6578C17.3641 10.4047 17.5235 10.1422 17.5672 9.90156C17.6125 9.65156 17.536 9.43281 17.3329 9.22968C17.1438 9.04062 16.9125 8.94062 16.6641 8.94062C16.361 8.94062 16.05 9.08437 15.7907 9.34531L13.1922 11.8422C13.1469 11.8859 13.0875 11.9078 13.0297 11.9078C12.9837 11.9079 12.9387 11.8944 12.9003 11.869C12.862 11.8436 12.832 11.8074 12.8141 11.765C12.7962 11.7226 12.7913 11.6758 12.7999 11.6306C12.8085 11.5854 12.8303 11.5438 12.8625 11.5109L17.011 7.22656C17.4266 6.81093 17.6219 6.175 17.1282 5.68125C16.9391 5.49218 16.7079 5.39218 16.4594 5.39218C16.1563 5.39218 15.8454 5.53593 15.586 5.79687L11.3422 9.93437C11.2969 9.97812 11.2375 10.0016 11.1782 10.0016C11.1188 10.0016 11.0579 9.97812 11.0125 9.93281C10.9219 9.84218 10.9204 9.69531 11.011 9.60312L16.1079 4.37812C16.3438 4.14218 16.486 3.85937 16.511 3.58437C16.5344 3.30468 16.436 3.04531 16.225 2.83437C16.036 2.64531 15.8047 2.54531 15.5563 2.54531C15.2532 2.54531 14.9422 2.68906 14.6829 2.94843L9.48442 8.01718C9.4391 8.06093 9.37973 8.08437 9.32035 8.08437C9.26098 8.08437 9.20004 8.06093 9.15473 8.01562C9.0641 7.925 9.06254 7.77812 9.15317 7.68593L12.9282 3.80625C13.1657 3.56875 13.3079 3.2875 13.3313 3.0125C13.3547 2.73281 13.2563 2.47343 13.0454 2.2625C12.8563 2.07343 12.625 1.97343 12.3766 1.97343C12.0735 1.97343 11.7625 2.11718 11.5032 2.37812C10.1188 3.7375 6.50473 7.29218 6.38285 7.42343C5.91879 7.74375 5.82504 7.25937 5.8016 6.94531C5.77504 6.57968 6.19379 5.30312 5.95004 4.15468C5.54067 2.62812 4.36098 2.87812 4.33442 2.89062C3.68754 3.19375 3.81098 3.64687 4.04067 4.55781L4.0641 4.7375C4.30473 5.92812 2.6516 9.45625 2.52973 9.72031C1.88129 11.1391 1.13442 14.0156 3.60785 16.4891C6.31879 19.2 9.67504 17.8109 10.6985 16.7875Z" fill="url(#paint0_radial_566_5396)"/>
<path d="M7.22032 18.3094C8.88282 18.3094 10.2969 17.5141 10.8547 16.9625C11.3563 16.5531 14.5219 13.4969 17.1 10.9953C17.2047 10.8937 17.2656 10.8359 17.2719 10.8281C17.5641 10.5359 17.7453 10.2312 17.7969 9.94375C17.8563 9.61718 17.7547 9.32187 17.4984 9.06406C17.2641 8.82968 16.9766 8.70625 16.6641 8.70625C16.2969 8.70625 15.9281 8.875 15.625 9.17968L13.0297 11.6734L17.1797 7.38906C17.6578 6.91093 17.8984 6.11875 17.2938 5.51562C17.0594 5.28125 16.7719 5.15781 16.4594 5.15781C16.0922 5.15781 15.7234 5.32656 15.4203 5.63125L11.1797 9.76562L16.275 4.54218C16.5469 4.27031 16.7141 3.9375 16.7438 3.60625C16.7734 3.25312 16.6516 2.92968 16.3906 2.66875C16.1563 2.43437 15.8688 2.31093 15.5563 2.31093C15.1906 2.31093 14.8219 2.47812 14.5172 2.78281L9.32032 7.85L13.0953 3.97031C13.3688 3.69687 13.5359 3.36406 13.5641 3.03281C13.5938 2.68125 13.4719 2.35781 13.2109 2.09687C12.9766 1.8625 12.6891 1.73906 12.3766 1.73906C12.0094 1.73906 11.6406 1.90781 11.3375 2.2125L10.2109 3.31718C8.20314 5.28593 6.52501 6.93437 6.34532 7.11875C6.25782 7.18906 6.14376 7.21562 6.09532 7.19218C6.06407 7.17656 6.0297 7.10468 6.03595 6.95312C6.04532 6.6875 6.08282 6.35781 6.12189 6.00937C6.20001 5.30937 6.28126 4.58437 6.1797 4.10625C5.95782 3.27656 5.52189 2.925 5.19689 2.77343C4.75001 2.56718 4.3172 2.63906 4.23439 2.67812C3.42189 3.05937 3.58282 3.69687 3.8047 4.58125L3.80939 4.60312L3.83439 4.78593C3.99689 5.58593 3.16251 7.79687 2.32814 9.59843L2.31564 9.62343C1.75782 10.8422 0.753136 13.9687 3.44064 16.6562C4.67657 17.8891 6.01407 18.3094 7.22032 18.3094ZM16.6641 9.175C16.8484 9.175 17.0234 9.25156 17.1672 9.39531C17.3156 9.54375 17.3672 9.6875 17.3359 9.85937C17.3016 10.0484 17.1625 10.2734 16.9453 10.4922C16.9438 10.4937 16.8813 10.5547 16.7734 10.6578C13.1141 14.2094 10.9047 16.3203 10.5516 16.6047L10.5328 16.6219C9.67032 17.4844 6.46564 19.0156 3.77345 16.3234C1.29376 13.8437 2.22657 10.9484 2.74376 9.81718L2.7547 9.79375C3.2922 8.63437 4.51407 5.82187 4.29689 4.7L4.26095 4.46562C4.02032 3.50937 4.00626 3.30937 4.41407 3.1125C4.53439 3.09062 5.39689 2.98593 5.72657 4.21562C5.80939 4.60781 5.7297 5.325 5.65939 5.95781C5.61876 6.31562 5.58126 6.65468 5.57189 6.9375C5.55626 7.38281 5.7672 7.55312 5.89532 7.61562C6.15626 7.74218 6.4672 7.63437 6.66095 7.47187L6.68126 7.45312C6.77657 7.35 9.04376 5.12656 10.5438 3.65468L11.6719 2.54687C12.0563 2.16093 12.5516 2.09687 12.8844 2.42968C13.0469 2.59218 13.1203 2.78281 13.1031 2.99375C13.0844 3.21406 12.9656 3.44375 12.7672 3.64218L8.98439 7.52187C8.89842 7.61028 8.85058 7.72889 8.85117 7.8522C8.85175 7.97551 8.90071 8.09366 8.98751 8.18125C9.16095 8.35468 9.4672 8.35781 9.64532 8.18593L14.8469 3.11562C15.2313 2.73125 15.7281 2.66718 16.0594 3C16.2219 3.1625 16.2953 3.35312 16.2781 3.56406C16.2578 3.78437 16.1391 4.01562 15.9422 4.21093L10.8438 9.43906C10.6641 9.62031 10.6656 9.91718 10.8469 10.0984C11.0203 10.2719 11.3266 10.275 11.5047 10.1031L15.75 5.96406C16.1344 5.57656 16.6313 5.51406 16.9625 5.84687C17.3672 6.25156 17.1516 6.75312 16.8453 7.06093L12.6938 11.3484C12.608 11.4364 12.5605 11.5547 12.5613 11.6775C12.5622 11.8004 12.6115 11.9179 12.6984 12.0047C12.8734 12.1797 13.1766 12.1812 13.3547 12.0109L15.9531 9.51406C16.1719 9.29375 16.4234 9.175 16.6641 9.175Z" fill="#EDA600"/>
<path d="M6.75626 7.27188C7.61407 9.02344 7.50313 11.475 6.21563 13.4422C6.07032 13.7078 5.82188 13.5781 5.94845 13.3047C7.50313 9.97813 5.87345 7.58126 5.87345 7.58126L6.75626 7.27188Z" fill="#EDA600"/>
<path d="M10.1296 0.703119C9.65776 0.579682 9.15464 0.590619 8.66558 0.704682C8.17964 0.821869 7.6937 1.06874 7.33276 1.47187C6.97964 1.87187 6.76245 2.35781 6.68901 2.86718C6.62026 3.37187 6.68433 3.89218 6.92339 4.32343C6.95151 3.83906 7.03589 3.39374 7.17808 2.98281C7.25151 2.77812 7.33745 2.58281 7.44214 2.39843C7.54526 2.21562 7.66714 2.03437 7.79683 1.88593C8.06089 1.58124 8.4187 1.34374 8.82026 1.15937C9.22339 0.968744 9.66245 0.828119 10.1296 0.703119Z" fill="#8D8F8D"/>
<path d="M10 2.18436C9.73906 2.01874 9.4125 1.98436 9.10469 2.03905C8.79375 2.09374 8.49687 2.24842 8.2625 2.46249C8.02969 2.67967 7.86406 2.95311 7.76094 3.23749C7.71094 3.37967 7.68594 3.52967 7.6625 3.67499C7.65469 3.82499 7.65469 3.97499 7.67812 4.12499C7.78594 4.01092 7.87031 3.89686 7.95 3.78592C8.04219 3.68124 8.11406 3.5703 8.19687 3.46874C8.35937 3.26717 8.51719 3.08436 8.6875 2.92186C8.8625 2.76405 9.04687 2.62499 9.26094 2.50467C9.47344 2.38124 9.7125 2.27811 10 2.18436Z" fill="#8D8F8D"/>
<path d="M18.9328 12.0844C18.7125 12.5156 18.4828 12.9156 18.2156 13.2688C17.95 13.6219 17.6453 13.9219 17.2906 14.1172C17.1187 14.2125 16.9141 14.2953 16.7141 14.3578C16.5125 14.4219 16.3031 14.4656 16.0875 14.4953C15.6562 14.5484 15.2031 14.5391 14.7234 14.4656C15.0953 14.7891 15.5922 14.9609 16.0984 14.9984C16.6109 15.0328 17.1312 14.9219 17.5969 14.6594C18.0656 14.3922 18.4094 13.9672 18.625 13.5156C18.8406 13.0609 18.9562 12.5719 18.9328 12.0844Z" fill="#8D8F8D"/>
<path d="M17.4562 11.9016C17.3047 12.1641 17.1547 12.375 16.9906 12.5594C16.8281 12.7438 16.6531 12.8953 16.4625 13.0328C16.2687 13.1656 16.0562 13.2828 15.825 13.4C15.7093 13.4594 15.5859 13.5063 15.464 13.575C15.3375 13.6297 15.2093 13.6875 15.075 13.7703C15.2172 13.8234 15.3625 13.8547 15.5109 13.8781C15.6578 13.8844 15.8093 13.8922 15.9593 13.8719C16.2593 13.8313 16.5593 13.7266 16.8218 13.5438C17.0797 13.3578 17.2937 13.1 17.4109 12.8078C17.5297 12.5172 17.564 12.1922 17.4562 11.9016Z" fill="#8D8F8D"/>
<defs>
<radialGradient id="paint0_radial_566_5396" cx="0" cy="0" r="1" gradientUnits="userSpaceOnUse" gradientTransform="translate(13.1178 5.93759) rotate(-135) scale(14.22)">
<stop offset="0.353" stop-color="#FFCA28"/>
<stop offset="0.872" stop-color="#FFB300"/>
</radialGradient>
</defs>
</svg>
